<svg width="26px" height="26px" viewBox="0 0 26 26" version="1.1" xmlns="http://www.w3.org/2000/svg" xmlns:xlink="http://www.w3.org/1999/xlink">
    <g id="Designs" stroke="white" stroke-width="1" fill="none" fill-rule="evenodd">
        <g id="W1_Home_DT" transform="translate(-17.000000, -20.000000)" class="white" stroke-width="0.72">
            <g id="Group-17-Copy" transform="translate(17.000000, 20.000000)">
                <path d="M12.6437575,12.6439004 L16.2263357,16.2264786 C18.2048028,18.2049457 21.4125486,18.2049457 23.3910157,16.2264786 C25.3699591,14.2480115 25.3699591,11.0402657 23.3910157,9.06179854 C21.4125486,7.08333142 18.2048028,7.08333142 16.2263357,9.06179854 L12.6437575,12.6439004 Z" id="Stroke-1"></path>
                <path d="M12.6437575,12.6439004 L16.2263357,9.06179854 C18.2048028,7.08333142 18.2048028,3.87510934 16.2263357,1.8971185 C14.2478686,-0.081824904 11.0401228,-0.081824904 9.06165565,1.8971185 C7.08318853,3.87510934 7.08318853,7.08333142 9.06165565,9.06179854 L12.6437575,12.6439004 Z" id="Stroke-3"></path>
                <path d="M4.01956506,4.28504353 L4.01956506,9.35123389 C4.01956506,12.1493789 6.2880867,14.4174243 9.0862317,14.4174243 C11.8843767,14.4174243 14.1519458,12.1493789 14.1519458,9.35123389 C14.1519458,6.55356517 11.8843767,4.28504353 9.0862317,4.28504353 L4.01956506,4.28504353 Z" id="Stroke-5"></path>
                <path d="M21.2684263,21.5336666 L21.2684263,16.4674763 C21.2684263,13.6693313 18.9999046,11.4012859 16.2017596,11.4012859 C13.4036146,11.4012859 11.1360456,13.6693313 11.1360456,16.4674763 C11.1360456,19.265145 13.4036146,21.5336666 16.2017596,21.5336666 L21.2684263,21.5336666 Z" id="Stroke-7"></path>
                <path d="M4.01956506,21.5336666 L9.0862317,21.5336666 C11.8843767,21.5336666 14.1519458,19.265145 14.1519458,16.4674763 C14.1519458,13.6693313 11.8843767,11.4012859 9.0862317,11.4012859 C6.2880867,11.4012859 4.01956506,13.6693313 4.01956506,16.4674763 L4.01956506,21.5336666 Z" id="Stroke-9"></path>
                <path d="M12.6437575,12.6439004 L9.06165565,16.2264786 C7.08318853,18.2049457 7.08318853,21.4126915 9.06165565,23.3911586 C11.0401228,25.3696257 14.2478686,25.3696257 16.2263357,23.3911586 C18.2048028,21.4126915 18.2048028,18.2049457 16.2263357,16.2264786 L12.6437575,12.6439004 Z" id="Stroke-11"></path>
                <path d="M12.6437575,12.6439004 L9.06165565,9.06179854 C7.08318853,7.08333142 3.87544273,7.08333142 1.89697561,9.06179854 C-0.081967788,11.0402657 -0.081967788,14.2480115 1.89697561,16.2264786 C3.87544273,18.2049457 7.08318853,18.2049457 9.06165565,16.2264786 L12.6437575,12.6439004 Z" id="Stroke-13"></path>
                <path d="M21.2684263,4.28504353 L16.2017596,4.28504353 C13.4036146,4.28504353 11.1360456,6.55356517 11.1360456,9.35123389 C11.1360456,12.1493789 13.4036146,14.4174243 16.2017596,14.4174243 C18.9999046,14.4174243 21.2684263,12.1493789 21.2684263,9.35123389 L21.2684263,4.28504353 Z" id="Stroke-15"></path>
            </g>
        </g>
    </g>
</svg>